<mxfile host="app.diagrams.net" modified="2022-10-18T11:25:25.521Z" agent="5.0 (Windows NT 10.0; Win64; x64) AppleWebKit/537.36 (KHTML, like Gecko) Chrome/106.0.0.0 Safari/537.36" etag="ixU1vYFm4e7-Auhhfpde" version="20.4.1" type="github">
  <diagram id="sAJ3kJgMDXo5LWI8DHIO" name="PÃ¡gina-1">
    <mxGraphModel dx="4890" dy="2154" grid="1" gridSize="10" guides="1" tooltips="1" connect="1" arrows="1" fold="1" page="1" pageScale="1" pageWidth="827" pageHeight="1169" math="0" shadow="0">
      <root>
        <mxCell id="0" />
        <mxCell id="1" parent="0" />
        <mxCell id="Xmk_KvLA6P009dYX5BMR-17" style="edgeStyle=orthogonalEdgeStyle;rounded=0;orthogonalLoop=1;jettySize=auto;html=1;entryX=1;entryY=0.5;entryDx=0;entryDy=0;entryPerimeter=0;" edge="1" parent="1" source="Xmk_KvLA6P009dYX5BMR-1" target="Xmk_KvLA6P009dYX5BMR-5">
          <mxGeometry relative="1" as="geometry">
            <mxPoint x="630" y="320" as="targetPoint" />
            <Array as="points">
              <mxPoint x="700" y="320" />
              <mxPoint x="700" y="320" />
            </Array>
          </mxGeometry>
        </mxCell>
        <mxCell id="Xmk_KvLA6P009dYX5BMR-18" value="Query" style="edgeLabel;html=1;align=center;verticalAlign=middle;resizable=0;points=[];" vertex="1" connectable="0" parent="Xmk_KvLA6P009dYX5BMR-17">
          <mxGeometry x="0.1833" relative="1" as="geometry">
            <mxPoint x="11" as="offset" />
          </mxGeometry>
        </mxCell>
        <object placeholders="1" c4Type="MongoDB" c4Container="Container" c4Technology="MongoDB" c4Description="Mongo Database for reading actions" label="&lt;font style=&quot;font-size: 16px&quot;&gt;&lt;b&gt;%c4Type%&lt;/b&gt;&lt;/font&gt;&lt;div&gt;[%c4Container%:&amp;nbsp;%c4Technology%]&lt;/div&gt;&lt;br&gt;&lt;div&gt;&lt;font style=&quot;font-size: 11px&quot;&gt;&lt;font color=&quot;#E6E6E6&quot;&gt;%c4Description%&lt;/font&gt;&lt;/div&gt;" id="Xmk_KvLA6P009dYX5BMR-1">
          <mxCell style="shape=cylinder3;size=15;whiteSpace=wrap;html=1;boundedLbl=1;rounded=0;labelBackgroundColor=none;fillColor=#23A2D9;fontSize=12;fontColor=#ffffff;align=center;strokeColor=#0E7DAD;metaEdit=1;points=[[0.5,0,0],[1,0.25,0],[1,0.5,0],[1,0.75,0],[0.5,1,0],[0,0.75,0],[0,0.5,0],[0,0.25,0]];resizable=0;shadow=1;" vertex="1" parent="1">
            <mxGeometry x="760" y="260" width="240" height="120" as="geometry" />
          </mxCell>
        </object>
        <object placeholders="1" c4Type="SqlServer" c4Container="Container" c4Technology="SqlServer" c4Description="SqlServer Database for writing actions" label="&lt;font style=&quot;font-size: 16px&quot;&gt;&lt;b&gt;%c4Type%&lt;/b&gt;&lt;/font&gt;&lt;div&gt;[%c4Container%:&amp;nbsp;%c4Technology%]&lt;/div&gt;&lt;br&gt;&lt;div&gt;&lt;font style=&quot;font-size: 11px&quot;&gt;&lt;font color=&quot;#E6E6E6&quot;&gt;%c4Description%&lt;/font&gt;&lt;/div&gt;" id="Xmk_KvLA6P009dYX5BMR-2">
          <mxCell style="shape=cylinder3;size=15;whiteSpace=wrap;html=1;boundedLbl=1;rounded=0;labelBackgroundColor=none;fillColor=#23A2D9;fontSize=12;fontColor=#ffffff;align=center;strokeColor=#0E7DAD;metaEdit=1;points=[[0.5,0,0],[1,0.25,0],[1,0.5,0],[1,0.75,0],[0.5,1,0],[0,0.75,0],[0,0.5,0],[0,0.25,0]];resizable=0;shadow=1;" vertex="1" parent="1">
            <mxGeometry x="777" y="720" width="240" height="120" as="geometry" />
          </mxCell>
        </object>
        <mxCell id="Xmk_KvLA6P009dYX5BMR-15" style="edgeStyle=orthogonalEdgeStyle;rounded=0;orthogonalLoop=1;jettySize=auto;html=1;exitX=0.5;exitY=0;exitDx=0;exitDy=0;exitPerimeter=0;" edge="1" parent="1" source="Xmk_KvLA6P009dYX5BMR-3" target="Xmk_KvLA6P009dYX5BMR-1">
          <mxGeometry relative="1" as="geometry" />
        </mxCell>
        <mxCell id="Xmk_KvLA6P009dYX5BMR-16" value="Command" style="edgeLabel;html=1;align=center;verticalAlign=middle;resizable=0;points=[];" vertex="1" connectable="0" parent="Xmk_KvLA6P009dYX5BMR-15">
          <mxGeometry x="0.0636" relative="1" as="geometry">
            <mxPoint as="offset" />
          </mxGeometry>
        </mxCell>
        <object placeholders="1" c4Name="qryupdate" c4Type="Container" c4Technology=".Net Core, Service" c4Description="qryupdate is a container responsible for propagate data to MongoDB database" label="&lt;font style=&quot;font-size: 16px&quot;&gt;&lt;b&gt;%c4Name%&lt;/b&gt;&lt;/font&gt;&lt;div&gt;[%c4Type%: %c4Technology%]&lt;/div&gt;&lt;br&gt;&lt;div&gt;&lt;font style=&quot;font-size: 11px&quot;&gt;&lt;font color=&quot;#E6E6E6&quot;&gt;%c4Description%&lt;/font&gt;&lt;/div&gt;" id="Xmk_KvLA6P009dYX5BMR-3">
          <mxCell style="rounded=1;whiteSpace=wrap;html=1;fontSize=11;labelBackgroundColor=none;fillColor=#23A2D9;fontColor=#ffffff;align=center;arcSize=10;strokeColor=#0E7DAD;metaEdit=1;resizable=0;points=[[0.25,0,0],[0.5,0,0],[0.75,0,0],[1,0.25,0],[1,0.5,0],[1,0.75,0],[0.75,1,0],[0.5,1,0],[0.25,1,0],[0,0.75,0],[0,0.5,0],[0,0.25,0]];shadow=1;" vertex="1" parent="1">
            <mxGeometry x="400" y="460" width="240" height="120" as="geometry" />
          </mxCell>
        </object>
        <mxCell id="Xmk_KvLA6P009dYX5BMR-7" style="edgeStyle=orthogonalEdgeStyle;rounded=0;orthogonalLoop=1;jettySize=auto;html=1;entryX=0;entryY=0.5;entryDx=0;entryDy=0;entryPerimeter=0;" edge="1" parent="1" source="Xmk_KvLA6P009dYX5BMR-4" target="Xmk_KvLA6P009dYX5BMR-2">
          <mxGeometry relative="1" as="geometry">
            <Array as="points">
              <mxPoint x="710" y="700" />
              <mxPoint x="710" y="780" />
            </Array>
          </mxGeometry>
        </mxCell>
        <mxCell id="Xmk_KvLA6P009dYX5BMR-9" style="edgeStyle=orthogonalEdgeStyle;rounded=0;orthogonalLoop=1;jettySize=auto;html=1;entryX=0.5;entryY=1;entryDx=0;entryDy=0;entryPerimeter=0;" edge="1" parent="1" source="Xmk_KvLA6P009dYX5BMR-4" target="Xmk_KvLA6P009dYX5BMR-13">
          <mxGeometry relative="1" as="geometry">
            <Array as="points">
              <mxPoint x="710" y="700" />
              <mxPoint x="710" y="620" />
              <mxPoint x="770" y="620" />
            </Array>
          </mxGeometry>
        </mxCell>
        <mxCell id="Xmk_KvLA6P009dYX5BMR-11" value="Command" style="edgeLabel;html=1;align=center;verticalAlign=middle;resizable=0;points=[];" vertex="1" connectable="0" parent="Xmk_KvLA6P009dYX5BMR-9">
          <mxGeometry x="-0.5442" relative="1" as="geometry">
            <mxPoint x="-18" as="offset" />
          </mxGeometry>
        </mxCell>
        <object placeholders="1" c4Name="writable" c4Type="Container" c4Technology=".Net Core, REST" c4Description="Writable is a container responsible for executing Writable API" label="&lt;font style=&quot;font-size: 16px&quot;&gt;&lt;b&gt;%c4Name%&lt;/b&gt;&lt;/font&gt;&lt;div&gt;[%c4Type%: %c4Technology%]&lt;/div&gt;&lt;br&gt;&lt;div&gt;&lt;font style=&quot;font-size: 11px&quot;&gt;&lt;font color=&quot;#E6E6E6&quot;&gt;%c4Description%&lt;/font&gt;&lt;/div&gt;" id="Xmk_KvLA6P009dYX5BMR-4">
          <mxCell style="rounded=1;whiteSpace=wrap;html=1;fontSize=11;labelBackgroundColor=none;fillColor=#23A2D9;fontColor=#ffffff;align=center;arcSize=10;strokeColor=#0E7DAD;metaEdit=1;resizable=0;points=[[0.25,0,0],[0.5,0,0],[0.75,0,0],[1,0.25,0],[1,0.5,0],[1,0.75,0],[0.75,1,0],[0.5,1,0],[0.25,1,0],[0,0.75,0],[0,0.5,0],[0,0.25,0]];shadow=1;" vertex="1" parent="1">
            <mxGeometry x="400" y="640" width="240" height="120" as="geometry" />
          </mxCell>
        </object>
        <mxCell id="Xmk_KvLA6P009dYX5BMR-20" style="edgeStyle=orthogonalEdgeStyle;rounded=0;orthogonalLoop=1;jettySize=auto;html=1;entryX=1;entryY=0.5;entryDx=0;entryDy=0;entryPerimeter=0;" edge="1" parent="1" source="Xmk_KvLA6P009dYX5BMR-5" target="Xmk_KvLA6P009dYX5BMR-19">
          <mxGeometry relative="1" as="geometry" />
        </mxCell>
        <mxCell id="Xmk_KvLA6P009dYX5BMR-22" value="Query" style="edgeLabel;html=1;align=center;verticalAlign=middle;resizable=0;points=[];rotation=-90;" vertex="1" connectable="0" parent="Xmk_KvLA6P009dYX5BMR-20">
          <mxGeometry x="-0.0556" y="-1" relative="1" as="geometry">
            <mxPoint as="offset" />
          </mxGeometry>
        </mxCell>
        <object placeholders="1" c4Name="graphql" c4Type="Container" c4Technology=".Net Core, GraphQL" c4Description="graphql is a container responsible for providing data from MongoDB" label="&lt;font style=&quot;font-size: 16px&quot;&gt;&lt;b&gt;%c4Name%&lt;/b&gt;&lt;/font&gt;&lt;div&gt;[%c4Type%: %c4Technology%]&lt;/div&gt;&lt;br&gt;&lt;div&gt;&lt;font style=&quot;font-size: 11px&quot;&gt;&lt;font color=&quot;#E6E6E6&quot;&gt;%c4Description%&lt;/font&gt;&lt;/div&gt;" id="Xmk_KvLA6P009dYX5BMR-5">
          <mxCell style="rounded=1;whiteSpace=wrap;html=1;fontSize=11;labelBackgroundColor=none;fillColor=#23A2D9;fontColor=#ffffff;align=center;arcSize=10;strokeColor=#0E7DAD;metaEdit=1;resizable=0;points=[[0.25,0,0],[0.5,0,0],[0.75,0,0],[1,0.25,0],[1,0.5,0],[1,0.75,0],[0.75,1,0],[0.5,1,0],[0.25,1,0],[0,0.75,0],[0,0.5,0],[0,0.25,0]];shadow=1;" vertex="1" parent="1">
            <mxGeometry x="400" y="260" width="240" height="120" as="geometry" />
          </mxCell>
        </object>
        <mxCell id="Xmk_KvLA6P009dYX5BMR-12" style="edgeStyle=orthogonalEdgeStyle;rounded=0;orthogonalLoop=1;jettySize=auto;html=1;entryX=1;entryY=0.5;entryDx=0;entryDy=0;entryPerimeter=0;exitX=0;exitY=0.5;exitDx=0;exitDy=0;exitPerimeter=0;" edge="1" parent="1" source="Xmk_KvLA6P009dYX5BMR-13" target="Xmk_KvLA6P009dYX5BMR-3">
          <mxGeometry relative="1" as="geometry" />
        </mxCell>
        <mxCell id="Xmk_KvLA6P009dYX5BMR-14" value="Query" style="edgeLabel;html=1;align=center;verticalAlign=middle;resizable=0;points=[];" vertex="1" connectable="0" parent="Xmk_KvLA6P009dYX5BMR-12">
          <mxGeometry x="0.3468" relative="1" as="geometry">
            <mxPoint x="23" as="offset" />
          </mxGeometry>
        </mxCell>
        <object placeholders="1" c4Type="RabbitMQ" c4Container="Container" c4Technology="RabbitMQ" c4Description="Rabbitmq is a container responsible for receiving and propagating events to connect two systems" label="&lt;font style=&quot;font-size: 16px&quot;&gt;&lt;b&gt;%c4Type%&lt;/b&gt;&lt;/font&gt;&lt;div&gt;[%c4Container%:&amp;nbsp;%c4Technology%]&lt;/div&gt;&lt;br&gt;&lt;div&gt;&lt;font style=&quot;font-size: 11px&quot;&gt;&lt;font color=&quot;#E6E6E6&quot;&gt;%c4Description%&lt;/font&gt;&lt;/div&gt;" id="Xmk_KvLA6P009dYX5BMR-13">
          <mxCell style="shape=cylinder3;size=15;direction=south;whiteSpace=wrap;html=1;boundedLbl=1;rounded=0;labelBackgroundColor=none;fillColor=#23A2D9;fontSize=12;fontColor=#ffffff;align=center;strokeColor=#0E7DAD;metaEdit=1;points=[[0.5,0,0],[1,0.25,0],[1,0.5,0],[1,0.75,0],[0.5,1,0],[0,0.75,0],[0,0.5,0],[0,0.25,0]];resizable=0;shadow=1;" vertex="1" parent="1">
            <mxGeometry x="777" y="560" width="240" height="120" as="geometry" />
          </mxCell>
        </object>
        <mxCell id="Xmk_KvLA6P009dYX5BMR-21" style="edgeStyle=orthogonalEdgeStyle;rounded=0;orthogonalLoop=1;jettySize=auto;html=1;entryX=0;entryY=0.5;entryDx=0;entryDy=0;entryPerimeter=0;exitX=0.5;exitY=1;exitDx=0;exitDy=0;exitPerimeter=0;" edge="1" parent="1" source="Xmk_KvLA6P009dYX5BMR-19" target="Xmk_KvLA6P009dYX5BMR-4">
          <mxGeometry relative="1" as="geometry" />
        </mxCell>
        <mxCell id="Xmk_KvLA6P009dYX5BMR-23" value="Command" style="edgeLabel;html=1;align=center;verticalAlign=middle;resizable=0;points=[];" vertex="1" connectable="0" parent="Xmk_KvLA6P009dYX5BMR-21">
          <mxGeometry x="0.145" y="-1" relative="1" as="geometry">
            <mxPoint as="offset" />
          </mxGeometry>
        </mxCell>
        <object placeholders="1" c4Name="APIGateway" c4Type="Container" c4Technology="KrakenD" c4Description="APIGateway for centralizing access to Write and Read " label="&lt;font style=&quot;font-size: 16px&quot;&gt;&lt;b&gt;%c4Name%&lt;/b&gt;&lt;/font&gt;&lt;div&gt;[%c4Type%: %c4Technology%]&lt;/div&gt;&lt;br&gt;&lt;div&gt;&lt;font style=&quot;font-size: 11px&quot;&gt;&lt;font color=&quot;#E6E6E6&quot;&gt;%c4Description%&lt;/font&gt;&lt;/div&gt;" id="Xmk_KvLA6P009dYX5BMR-19">
          <mxCell style="rounded=1;whiteSpace=wrap;html=1;fontSize=11;labelBackgroundColor=none;fillColor=#23A2D9;fontColor=#ffffff;align=center;arcSize=10;strokeColor=#0E7DAD;metaEdit=1;resizable=0;points=[[0.25,0,0],[0.5,0,0],[0.75,0,0],[1,0.25,0],[1,0.5,0],[1,0.75,0],[0.75,1,0],[0.5,1,0],[0.25,1,0],[0,0.75,0],[0,0.5,0],[0,0.25,0]];shadow=1;" vertex="1" parent="1">
            <mxGeometry y="460" width="240" height="120" as="geometry" />
          </mxCell>
        </object>
        <mxCell id="Xmk_KvLA6P009dYX5BMR-25" style="edgeStyle=orthogonalEdgeStyle;rounded=0;orthogonalLoop=1;jettySize=auto;html=1;" edge="1" parent="1" source="Xmk_KvLA6P009dYX5BMR-24" target="Xmk_KvLA6P009dYX5BMR-19">
          <mxGeometry relative="1" as="geometry" />
        </mxCell>
        <mxCell id="Xmk_KvLA6P009dYX5BMR-24" value="Frontend" style="aspect=fixed;html=1;points=[];align=center;image;fontSize=12;image=img/lib/azure2/general/Browser.svg;sketch=0;" vertex="1" parent="1">
          <mxGeometry x="-200" y="475" width="112.5" height="90" as="geometry" />
        </mxCell>
        <mxCell id="Xmk_KvLA6P009dYX5BMR-26" value="" style="html=1;verticalLabelPosition=bottom;align=center;labelBackgroundColor=#ffffff;verticalAlign=top;strokeWidth=2;strokeColor=#0080F0;shadow=0;dashed=0;shape=mxgraph.ios7.icons.smartphone;" vertex="1" parent="1">
          <mxGeometry x="690" y="620" width="18" height="30" as="geometry" />
        </mxCell>
        <mxCell id="Xmk_KvLA6P009dYX5BMR-30" style="edgeStyle=orthogonalEdgeStyle;rounded=0;orthogonalLoop=1;jettySize=auto;html=1;exitX=0.5;exitY=1;exitDx=0;exitDy=0;exitPerimeter=0;" edge="1" parent="1" source="Xmk_KvLA6P009dYX5BMR-34" target="Xmk_KvLA6P009dYX5BMR-24">
          <mxGeometry relative="1" as="geometry">
            <mxPoint x="-143.66666666666652" y="630.0000000000002" as="sourcePoint" />
          </mxGeometry>
        </mxCell>
        <mxCell id="Xmk_KvLA6P009dYX5BMR-33" value="" style="verticalLabelPosition=bottom;html=1;verticalAlign=top;align=center;strokeColor=none;fillColor=#00BEF2;shape=mxgraph.azure.user;shadow=1;sketch=0;" vertex="1" parent="1">
          <mxGeometry x="670" y="610" width="47.5" height="50" as="geometry" />
        </mxCell>
        <mxCell id="Xmk_KvLA6P009dYX5BMR-34" value="User" style="verticalLabelPosition=bottom;html=1;verticalAlign=top;align=center;strokeColor=none;fillColor=#00BEF2;shape=mxgraph.azure.user;shadow=1;sketch=0;" vertex="1" parent="1">
          <mxGeometry x="-186.5" y="260" width="85.5" height="90" as="geometry" />
        </mxCell>
      </root>
    </mxGraphModel>
  </diagram>
</mxfile>
